# xmcd CD database file
#
# Track frame offsets:
#	150
#	23974
#	49291
#	67841
#	95935
#	116177
#	142092
#	169720
#	192560
#	212569
#	234629
#
# Disc length: 3452 seconds
#
# Revision: 0
# Processed by: cddbd v1.5.2PL0 Copyright (c) Steve Scherf et al.
# Submitted via: CDex 1.70beta2
#
DISCID=a90d7a0b
DTITLE=Chuck Loeb - Presence
DYEAR=2007
DGENRE=Jazz
TTITLE0=Good To Go
TTITLE1=Rikki Don't Lose That Number
TTITLE2=Window Of The Soul
TTITLE3=Starting Over
TTITLE4=Llevame
TTITLE5=Presence
TTITLE6=The Music Outside
TTITLE7=The Western Sky
TTITLE8=Hangin' With You
TTITLE9=Mr. Martino
TTITLE10=Shed A Little Light
EXTD=YEAR: 2007
EXTT0=
EXTT1=
EXTT2=
EXTT3=
EXTT4=
EXTT5=
EXTT6=
EXTT7=
EXTT8=
EXTT9=
EXTT10=
PLAYORDER=
